<svg width="48" height="21" viewBox="0 0 48 21" fill="none" xmlns="http://www.w3.org/2000/svg">
<path fill-rule="evenodd" clip-rule="evenodd" d="M26.6667 21H48V0H26.6667V21Z" fill="#FF0000"/>
<path fill-rule="evenodd" clip-rule="evenodd" d="M0 21H21.3333V0H0V21Z" fill="#FF0000"/>
<path fill-rule="evenodd" clip-rule="evenodd" d="M42.3872 9.50723H43.7349V2.8728H42.3872V9.50723Z" fill="white"/>
<path fill-rule="evenodd" clip-rule="evenodd" d="M33.8518 7.29718C33.8518 8.51518 32.8476 9.50638 31.6081 9.50638C30.3654 9.50638 29.3617 8.51518 29.3617 7.29718V2.87248H30.711V7.29718C30.711 7.78491 31.1105 8.18286 31.6081 8.18286C32.1052 8.18286 32.502 7.78491 32.502 7.29718V2.87248H33.8518V7.29718Z" fill="white"/>
<path fill-rule="evenodd" clip-rule="evenodd" d="M40.1386 18.1274H35.6495V11.4935H36.9951V16.7996H40.1386V18.1274Z" fill="white"/>
<path fill-rule="evenodd" clip-rule="evenodd" d="M40.1386 9.50638H38.7914L36.9951 5.71536V9.50638H35.6495V2.87248H36.9951L38.7914 6.66403V2.87248H40.1386V9.50638Z" fill="white"/>
<path fill-rule="evenodd" clip-rule="evenodd" d="M32.5018 15.9172C32.5018 16.4038 32.105 16.7997 31.6079 16.7997C31.1109 16.7997 30.7114 16.4038 30.7114 15.9172V13.708C30.7114 13.2181 31.1109 12.8249 31.6079 12.8249C32.105 12.8249 32.5018 13.2181 32.5018 13.708V15.9172ZM31.6079 11.4935C30.3653 11.4935 29.361 12.4852 29.361 13.708V15.9172C29.361 17.1367 30.3653 18.1274 31.6079 18.1274C31.7546 18.1274 31.9013 18.1159 32.0437 18.0891L32.5018 19.4562H33.8517L33.1861 17.489C33.5973 17.0858 33.8517 16.534 33.8517 15.9172V13.708C33.8517 12.4852 32.8469 11.4935 31.6079 11.4935Z" fill="white"/>
<path fill-rule="evenodd" clip-rule="evenodd" d="M43.9578 15.9172C43.9578 16.4038 43.5541 16.7997 43.0613 16.7997C42.5642 16.7997 42.1621 16.4038 42.1621 15.9172V13.708C42.1621 13.2181 42.5642 12.8249 43.0613 12.8249C43.5541 12.8249 43.9578 13.2181 43.9578 13.708V15.9172ZM43.0613 11.4935C41.8191 11.4935 40.8122 12.4852 40.8122 13.708V15.9172C40.8122 17.1367 41.8191 18.1274 43.0613 18.1274C44.2986 18.1274 45.3045 17.1367 45.3045 15.9172V13.708C45.3045 12.4852 44.2986 11.4935 43.0613 11.4935Z" fill="white"/>
<mask id="mask0_2513_46387" style="mask-type:luminance" maskUnits="userSpaceOnUse" x="0" y="0" width="48" height="21">
<path fill-rule="evenodd" clip-rule="evenodd" d="M0 21H48V0H0V21Z" fill="white"/>
</mask>
<g mask="url(#mask0_2513_46387)">
<path fill-rule="evenodd" clip-rule="evenodd" d="M12.1269 9.28253H18.1851V7.95848H12.1269V9.28253Z" fill="white"/>
<path fill-rule="evenodd" clip-rule="evenodd" d="M12.7979 4.19948H17.5141V2.8728H12.7979V4.19948Z" fill="white"/>
<path fill-rule="evenodd" clip-rule="evenodd" d="M7.86171 2.87264H3.81531V4.19932H6.51237V7.95832H3.14597V9.28237H9.20677V7.95832H7.86171V2.87264Z" fill="white"/>
<path fill-rule="evenodd" clip-rule="evenodd" d="M13.4709 16.799H16.8373V13.0426H13.4709V16.799ZM12.1269 11.7138V18.1277H18.1851V11.7138H12.1269Z" fill="white"/>
<path fill-rule="evenodd" clip-rule="evenodd" d="M3.81483 11.7135L3.12896 14.9234H4.47349L4.87989 13.0423H7.58336L6.79083 16.7992H2.73909L2.46976 18.1275H7.86176L9.20683 11.7135H3.81483Z" fill="white"/>
</g>
</svg>
